<mxfile host="app.diagrams.net" agent="Mozilla/5.0 (Windows NT 10.0; Win64; x64) AppleWebKit/537.36 (KHTML, like Gecko) Chrome/138.0.0.0 Safari/537.36" version="27.1.6">
  <diagram name="Page-1" id="ho8zhpfA6fdZ6h1gVpNp">
    <mxGraphModel grid="1" page="1" gridSize="10" guides="1" tooltips="1" connect="1" arrows="1" fold="1" pageScale="1" pageWidth="850" pageHeight="1100" math="0" shadow="0">
      <root>
        <mxCell id="0" />
        <mxCell id="1" parent="0" />
        <mxCell id="OtrYedsyExsqwe7RUNWg-1" value="Start" style="rounded=1;whiteSpace=wrap;html=1;arcSize=50;fillColor=#CCCCCC;" vertex="1" parent="1">
          <mxGeometry x="100" y="80" width="100" height="40" as="geometry" />
        </mxCell>
        <mxCell id="OtrYedsyExsqwe7RUNWg-19" style="edgeStyle=orthogonalEdgeStyle;rounded=0;orthogonalLoop=1;jettySize=auto;html=1;exitX=0.5;exitY=1;exitDx=0;exitDy=0;exitPerimeter=0;entryX=0.5;entryY=0;entryDx=0;entryDy=0;" edge="1" parent="1" source="OtrYedsyExsqwe7RUNWg-2" target="OtrYedsyExsqwe7RUNWg-3">
          <mxGeometry relative="1" as="geometry" />
        </mxCell>
        <mxCell id="OtrYedsyExsqwe7RUNWg-2" value="Run-up Dataset" style="shape=cylinder3;whiteSpace=wrap;html=1;boundedLbl=1;backgroundOutline=1;size=8.485735212053555;fillColor=#CCCCCC;" vertex="1" parent="1">
          <mxGeometry x="100" y="150" width="100" height="60" as="geometry" />
        </mxCell>
        <mxCell id="OtrYedsyExsqwe7RUNWg-20" value="" style="edgeStyle=orthogonalEdgeStyle;rounded=0;orthogonalLoop=1;jettySize=auto;html=1;" edge="1" parent="1" source="OtrYedsyExsqwe7RUNWg-3" target="OtrYedsyExsqwe7RUNWg-4">
          <mxGeometry relative="1" as="geometry" />
        </mxCell>
        <mxCell id="OtrYedsyExsqwe7RUNWg-3" value="Exploratory Data Analysis" style="rounded=0;whiteSpace=wrap;html=1;fillColor=#E6FFCC;" vertex="1" parent="1">
          <mxGeometry x="90" y="250" width="120" height="50" as="geometry" />
        </mxCell>
        <mxCell id="OtrYedsyExsqwe7RUNWg-21" style="edgeStyle=orthogonalEdgeStyle;rounded=0;orthogonalLoop=1;jettySize=auto;html=1;exitX=1;exitY=0.5;exitDx=0;exitDy=0;entryX=0;entryY=0.5;entryDx=0;entryDy=0;" edge="1" parent="1" source="OtrYedsyExsqwe7RUNWg-4" target="OtrYedsyExsqwe7RUNWg-5">
          <mxGeometry relative="1" as="geometry">
            <Array as="points">
              <mxPoint x="240" y="365" />
              <mxPoint x="240" y="175" />
            </Array>
          </mxGeometry>
        </mxCell>
        <mxCell id="OtrYedsyExsqwe7RUNWg-4" value="Data&lt;div&gt;Preprocessing&lt;/div&gt;" style="rounded=0;whiteSpace=wrap;html=1;fillColor=#E6FFCC;" vertex="1" parent="1">
          <mxGeometry x="90" y="340" width="120" height="50" as="geometry" />
        </mxCell>
        <mxCell id="OtrYedsyExsqwe7RUNWg-22" style="edgeStyle=orthogonalEdgeStyle;rounded=0;orthogonalLoop=1;jettySize=auto;html=1;exitX=0.5;exitY=1;exitDx=0;exitDy=0;entryX=0.5;entryY=0;entryDx=0;entryDy=0;" edge="1" parent="1" source="OtrYedsyExsqwe7RUNWg-5" target="OtrYedsyExsqwe7RUNWg-6">
          <mxGeometry relative="1" as="geometry" />
        </mxCell>
        <mxCell id="OtrYedsyExsqwe7RUNWg-23" style="edgeStyle=orthogonalEdgeStyle;rounded=0;orthogonalLoop=1;jettySize=auto;html=1;exitX=0.5;exitY=1;exitDx=0;exitDy=0;entryX=0.5;entryY=0;entryDx=0;entryDy=0;" edge="1" parent="1" source="OtrYedsyExsqwe7RUNWg-5" target="OtrYedsyExsqwe7RUNWg-7">
          <mxGeometry relative="1" as="geometry" />
        </mxCell>
        <mxCell id="OtrYedsyExsqwe7RUNWg-5" value="Data&lt;div&gt;Splitting&lt;/div&gt;" style="rounded=0;whiteSpace=wrap;html=1;fillColor=#E6FFCC;" vertex="1" parent="1">
          <mxGeometry x="370" y="150" width="100" height="50" as="geometry" />
        </mxCell>
        <mxCell id="On80SmWGBOxi7i_tS1B7-2" value="" style="edgeStyle=orthogonalEdgeStyle;rounded=0;orthogonalLoop=1;jettySize=auto;html=1;" edge="1" parent="1" source="OtrYedsyExsqwe7RUNWg-6" target="On80SmWGBOxi7i_tS1B7-1">
          <mxGeometry relative="1" as="geometry" />
        </mxCell>
        <mxCell id="OtrYedsyExsqwe7RUNWg-6" value="80%&lt;div&gt;Train&lt;/div&gt;&lt;div&gt;Dataset&lt;/div&gt;" style="shape=parallelogram;perimeter=parallelogramPerimeter;whiteSpace=wrap;html=1;fixedSize=1;fillColor=#99FFFF;" vertex="1" parent="1">
          <mxGeometry x="260" y="240" width="120" height="60" as="geometry" />
        </mxCell>
        <mxCell id="OtrYedsyExsqwe7RUNWg-33" style="edgeStyle=orthogonalEdgeStyle;rounded=0;orthogonalLoop=1;jettySize=auto;html=1;exitX=1;exitY=0.5;exitDx=0;exitDy=0;entryX=0.5;entryY=0;entryDx=0;entryDy=0;" edge="1" parent="1" source="OtrYedsyExsqwe7RUNWg-7" target="OtrYedsyExsqwe7RUNWg-15">
          <mxGeometry relative="1" as="geometry" />
        </mxCell>
        <mxCell id="OtrYedsyExsqwe7RUNWg-7" value="20%&lt;div&gt;Test&lt;/div&gt;&lt;div&gt;Dataset&lt;/div&gt;" style="shape=parallelogram;perimeter=parallelogramPerimeter;whiteSpace=wrap;html=1;fixedSize=1;fillColor=#E5CCFF;" vertex="1" parent="1">
          <mxGeometry x="440" y="240" width="120" height="60" as="geometry" />
        </mxCell>
        <mxCell id="On80SmWGBOxi7i_tS1B7-4" value="" style="edgeStyle=orthogonalEdgeStyle;rounded=0;orthogonalLoop=1;jettySize=auto;html=1;" edge="1" parent="1" source="OtrYedsyExsqwe7RUNWg-8" target="OtrYedsyExsqwe7RUNWg-9">
          <mxGeometry relative="1" as="geometry" />
        </mxCell>
        <mxCell id="OtrYedsyExsqwe7RUNWg-8" value="Model Training" style="rounded=0;whiteSpace=wrap;html=1;fillColor=#E6FFCC;" vertex="1" parent="1">
          <mxGeometry x="260" y="420" width="120" height="50" as="geometry" />
        </mxCell>
        <mxCell id="OtrYedsyExsqwe7RUNWg-26" value="" style="edgeStyle=orthogonalEdgeStyle;rounded=0;orthogonalLoop=1;jettySize=auto;html=1;" edge="1" parent="1" source="OtrYedsyExsqwe7RUNWg-9" target="OtrYedsyExsqwe7RUNWg-10">
          <mxGeometry relative="1" as="geometry" />
        </mxCell>
        <mxCell id="OtrYedsyExsqwe7RUNWg-9" value="Training&lt;div&gt;Result&lt;/div&gt;" style="shape=parallelogram;perimeter=parallelogramPerimeter;whiteSpace=wrap;html=1;fixedSize=1;fillColor=#99FFFF;" vertex="1" parent="1">
          <mxGeometry x="260" y="510" width="120" height="60" as="geometry" />
        </mxCell>
        <mxCell id="OtrYedsyExsqwe7RUNWg-27" value="" style="edgeStyle=orthogonalEdgeStyle;rounded=0;orthogonalLoop=1;jettySize=auto;html=1;" edge="1" parent="1" source="OtrYedsyExsqwe7RUNWg-10" target="OtrYedsyExsqwe7RUNWg-11">
          <mxGeometry relative="1" as="geometry" />
        </mxCell>
        <mxCell id="OtrYedsyExsqwe7RUNWg-10" value="Model Evaluation" style="rounded=0;whiteSpace=wrap;html=1;fillColor=#E6FFCC;" vertex="1" parent="1">
          <mxGeometry x="260" y="610" width="120" height="50" as="geometry" />
        </mxCell>
        <mxCell id="OtrYedsyExsqwe7RUNWg-31" value="" style="edgeStyle=orthogonalEdgeStyle;rounded=0;orthogonalLoop=1;jettySize=auto;html=1;" edge="1" parent="1" source="OtrYedsyExsqwe7RUNWg-11" target="OtrYedsyExsqwe7RUNWg-14">
          <mxGeometry relative="1" as="geometry" />
        </mxCell>
        <mxCell id="On80SmWGBOxi7i_tS1B7-6" style="edgeStyle=orthogonalEdgeStyle;rounded=0;orthogonalLoop=1;jettySize=auto;html=1;entryX=0.5;entryY=1;entryDx=0;entryDy=0;" edge="1" parent="1" source="OtrYedsyExsqwe7RUNWg-11" target="OtrYedsyExsqwe7RUNWg-13">
          <mxGeometry relative="1" as="geometry" />
        </mxCell>
        <mxCell id="OtrYedsyExsqwe7RUNWg-11" value="Acceptable&lt;div&gt;Evaluation&lt;/div&gt;&lt;div&gt;Metric?&lt;/div&gt;" style="rhombus;whiteSpace=wrap;html=1;fillColor=#33FF99;" vertex="1" parent="1">
          <mxGeometry x="420" y="595" width="160" height="80" as="geometry" />
        </mxCell>
        <mxCell id="OtrYedsyExsqwe7RUNWg-30" value="" style="edgeStyle=orthogonalEdgeStyle;rounded=0;orthogonalLoop=1;jettySize=auto;html=1;" edge="1" parent="1" source="OtrYedsyExsqwe7RUNWg-13" target="OtrYedsyExsqwe7RUNWg-8">
          <mxGeometry relative="1" as="geometry" />
        </mxCell>
        <mxCell id="OtrYedsyExsqwe7RUNWg-13" value="Hyperparameter&lt;div&gt;Tuning&lt;/div&gt;" style="rounded=0;whiteSpace=wrap;html=1;fillColor=#FFF4C3;" vertex="1" parent="1">
          <mxGeometry x="440" y="420" width="120" height="50" as="geometry" />
        </mxCell>
        <mxCell id="OtrYedsyExsqwe7RUNWg-32" style="edgeStyle=orthogonalEdgeStyle;rounded=0;orthogonalLoop=1;jettySize=auto;html=1;exitX=1;exitY=0.5;exitDx=0;exitDy=0;entryX=0;entryY=0.5;entryDx=0;entryDy=0;" edge="1" parent="1" source="OtrYedsyExsqwe7RUNWg-14" target="OtrYedsyExsqwe7RUNWg-15">
          <mxGeometry relative="1" as="geometry">
            <Array as="points">
              <mxPoint x="600" y="740" />
              <mxPoint x="600" y="405" />
            </Array>
          </mxGeometry>
        </mxCell>
        <mxCell id="OtrYedsyExsqwe7RUNWg-14" value="Optimized&lt;div&gt;Model&lt;/div&gt;" style="shape=parallelogram;perimeter=parallelogramPerimeter;whiteSpace=wrap;html=1;fixedSize=1;fillColor=#B3FF66;" vertex="1" parent="1">
          <mxGeometry x="440" y="710" width="120" height="60" as="geometry" />
        </mxCell>
        <mxCell id="OtrYedsyExsqwe7RUNWg-34" value="" style="edgeStyle=orthogonalEdgeStyle;rounded=0;orthogonalLoop=1;jettySize=auto;html=1;" edge="1" parent="1" source="OtrYedsyExsqwe7RUNWg-15" target="OtrYedsyExsqwe7RUNWg-16">
          <mxGeometry relative="1" as="geometry" />
        </mxCell>
        <mxCell id="OtrYedsyExsqwe7RUNWg-15" value="Run-up&lt;div&gt;Prediction&lt;/div&gt;" style="rounded=0;whiteSpace=wrap;html=1;fillColor=#E6FFCC;" vertex="1" parent="1">
          <mxGeometry x="634" y="380" width="120" height="50" as="geometry" />
        </mxCell>
        <mxCell id="OtrYedsyExsqwe7RUNWg-39" value="" style="edgeStyle=orthogonalEdgeStyle;rounded=0;orthogonalLoop=1;jettySize=auto;html=1;" edge="1" parent="1" source="OtrYedsyExsqwe7RUNWg-16" target="OtrYedsyExsqwe7RUNWg-38">
          <mxGeometry relative="1" as="geometry" />
        </mxCell>
        <mxCell id="OtrYedsyExsqwe7RUNWg-16" value="Test Results" style="shape=parallelogram;perimeter=parallelogramPerimeter;whiteSpace=wrap;html=1;fixedSize=1;fillColor=#E5CCFF;" vertex="1" parent="1">
          <mxGeometry x="634" y="459" width="120" height="60" as="geometry" />
        </mxCell>
        <mxCell id="OtrYedsyExsqwe7RUNWg-17" value="End" style="rounded=1;whiteSpace=wrap;html=1;arcSize=50;fillColor=#CCCCCC;" vertex="1" parent="1">
          <mxGeometry x="644" y="640" width="100" height="40" as="geometry" />
        </mxCell>
        <mxCell id="OtrYedsyExsqwe7RUNWg-18" style="edgeStyle=orthogonalEdgeStyle;rounded=0;orthogonalLoop=1;jettySize=auto;html=1;exitX=0.5;exitY=1;exitDx=0;exitDy=0;entryX=0.5;entryY=0;entryDx=0;entryDy=0;entryPerimeter=0;" edge="1" parent="1" source="OtrYedsyExsqwe7RUNWg-1" target="OtrYedsyExsqwe7RUNWg-2">
          <mxGeometry relative="1" as="geometry" />
        </mxCell>
        <mxCell id="OtrYedsyExsqwe7RUNWg-36" value="no" style="text;html=1;align=center;verticalAlign=middle;whiteSpace=wrap;rounded=0;" vertex="1" parent="1">
          <mxGeometry x="505" y="580" width="20" height="15" as="geometry" />
        </mxCell>
        <mxCell id="OtrYedsyExsqwe7RUNWg-37" value="yes" style="text;html=1;align=center;verticalAlign=middle;whiteSpace=wrap;rounded=0;" vertex="1" parent="1">
          <mxGeometry x="500" y="675" width="30" height="15" as="geometry" />
        </mxCell>
        <mxCell id="OtrYedsyExsqwe7RUNWg-40" value="" style="edgeStyle=orthogonalEdgeStyle;rounded=0;orthogonalLoop=1;jettySize=auto;html=1;" edge="1" parent="1" source="OtrYedsyExsqwe7RUNWg-38" target="OtrYedsyExsqwe7RUNWg-17">
          <mxGeometry relative="1" as="geometry" />
        </mxCell>
        <mxCell id="OtrYedsyExsqwe7RUNWg-38" value="Model Interpretation &amp;amp; Explanation" style="rounded=0;whiteSpace=wrap;html=1;fillColor=#E6FFCC;" vertex="1" parent="1">
          <mxGeometry x="624" y="550" width="140" height="50" as="geometry" />
        </mxCell>
        <mxCell id="On80SmWGBOxi7i_tS1B7-3" value="" style="edgeStyle=orthogonalEdgeStyle;rounded=0;orthogonalLoop=1;jettySize=auto;html=1;" edge="1" parent="1" source="On80SmWGBOxi7i_tS1B7-1" target="OtrYedsyExsqwe7RUNWg-8">
          <mxGeometry relative="1" as="geometry" />
        </mxCell>
        <mxCell id="On80SmWGBOxi7i_tS1B7-1" value="Feature Selection" style="rounded=0;whiteSpace=wrap;html=1;fillColor=#E6FFCC;" vertex="1" parent="1">
          <mxGeometry x="260" y="340" width="120" height="50" as="geometry" />
        </mxCell>
      </root>
    </mxGraphModel>
  </diagram>
</mxfile>
